<?xml version="1.0" encoding="UTF-8" standalone="no" ?>
<!DOCTYPE svg PUBLIC "-//W3C//DTD SVG 1.1//EN" "http://www.w3.org/Graphics/SVG/1.1/DTD/svg11.dtd">
<svg xmlns="http://www.w3.org/2000/svg" xmlns:xlink="http://www.w3.org/1999/xlink" version="1.1" width="1080" height="1080" viewBox="0 0 1080 1080" xml:space="preserve">
<desc>Created with Fabric.js 5.2.4</desc>
<defs>
</defs>
<g transform="matrix(1 0 0 1 540 540)" id="9100fa99-ff1d-418f-aaab-8ef8c4cc78e8"  >
<rect style="stroke: none; stroke-width: 1; stroke-dasharray: none; stroke-linecap: butt; stroke-dashoffset: 0; stroke-linejoin: miter; stroke-miterlimit: 4; fill: rgb(255,255,255); fill-rule: nonzero; opacity: 1; visibility: hidden;" vector-effect="non-scaling-stroke"  x="-540" y="-540" rx="0" ry="0" width="1080" height="1080" />
</g>
<g transform="matrix(1 0 0 1 540 540)" id="738f7434-df40-4457-a032-fb633f9cbd1b"  >
</g>
<g transform="matrix(3.53 0 0 3.53 540 540)"  >
<g style="" vector-effect="non-scaling-stroke"   >
		<g transform="matrix(1 0 0 1 0 0)"  >
<path style="stroke: none; stroke-width: 1; stroke-dasharray: none; stroke-linecap: butt; stroke-dashoffset: 0; stroke-linejoin: miter; stroke-miterlimit: 4; fill: rgb(35,180,93); fill-rule: nonzero; opacity: 1;" vector-effect="non-scaling-stroke"  transform=" translate(9.7, -145.22)" d="M 0 0 C 3.72513316 1.8033652 7.26018033 3.81590388 10.8203125 5.921875 C 12.58784304 6.94131643 14.35613015 7.95944673 16.125 8.9765625 C 20.20665427 11.33523178 24.27492566 13.7153506 28.3359375 16.109375 C 34.80676375 19.92219095 41.31015043 23.67672939 47.8203125 27.421875 C 57.14709462 32.79343629 66.45997031 38.18784493 75.74169922 43.63696289 C 80.50135989 46.42625185 85.27280961 49.18784418 90.08868408 51.87924194 C 92.46814727 53.20961518 94.84221095 54.54948546 97.21630859 55.8894043 C 98.89523835 56.83128341 100.58228336 57.758651 102.26953125 58.68554688 C 110.65358266 63.42321798 117.0696388 68.31710294 119.8203125 77.921875 C 120.2692621 82.23363766 120.25070836 86.52651794 120.24023438 90.85864258 C 120.24870392 92.15058029 120.25717346 93.44251801 120.26589966 94.77360535 C 120.288038 98.30273337 120.29105015 101.83162737 120.28915215 105.36081529 C 120.28903206 108.31530008 120.29761181 111.26973599 120.30592966 114.2242071 C 120.32513697 121.200042 120.32805771 128.17575724 120.32128906 135.15161133 C 120.31465362 142.32777911 120.33749827 149.5034322 120.37460279 156.67949563 C 120.40538078 162.85811583 120.416651 169.03657117 120.41276598 175.21526641 C 120.4107064 178.89776136 120.4160536 182.57985583 120.44065857 186.2622776 C 120.46722739 190.37416831 120.45313652 194.48498478 120.43554688 198.59692383 C 120.44881012 199.80297272 120.46207336 201.00902161 120.47573853 202.25161743 C 120.3936882 210.5316597 118.85832232 217.37631044 113.23241425 223.70936298 C 108.2921163 228.42711895 101.89872597 231.44525693 95.9453125 234.671875 C 93.68543096 235.91657729 91.42631682 237.16267385 89.16796875 238.41015625 C 88.07371582 239.0129541 86.97946289 239.61575195 85.85205078 240.23681641 C 81.99119513 242.38270348 78.1786209 244.6009336 74.3828125 246.859375 C 66.2646529 251.67906159 58.08685103 256.39223331 49.90454102 261.10205078 C 43.374123 264.86386683 36.85754422 268.64793823 30.35473633 272.45727539 C 22.12685064 277.27590761 13.88666169 282.06966845 5.5703125 286.734375 C 4.83748047 287.14921143 4.10464844 287.56404785 3.34960938 287.99145508 C -2.78595691 291.40425394 -8.00067255 293.08210672 -15.09008789 291.49389648 C -22.16678319 289.3031118 -28.15701193 285.61189953 -34.4296875 281.734375 C -35.52982178 281.06398193 -36.62995605 280.39358887 -37.76342773 279.70288086 C -40.90753146 277.78444075 -44.04439404 275.85466903 -47.1796875 273.921875 C -48.68583582 272.99940853 -50.19229089 272.07744247 -51.69921875 271.15625 C -54.53239374 269.42161529 -57.35914519 267.67700371 -60.1796875 265.921875 C -60.109375 264.1171875 -60.109375 264.1171875 -59.1796875 261.921875 C -56.8638509 260.68399815 -54.74135389 259.71609645 -52.3046875 258.796875 C -48.72201532 257.38551929 -45.40644672 256.07304781 -42.1796875 253.921875 C -37.90102525 254.21887347 -34.99469078 256.05527098 -31.43359375 258.3359375 C -29.80647461 259.35300781 -29.80647461 259.35300781 -28.14648438 260.390625 C -26.43944603 261.46818527 -24.73615011 262.55076205 -23.03881836 263.64355469 C -21.38823361 264.70179922 -19.72352885 265.73791704 -18.05859375 266.7734375 C -17.0744751 267.40072754 -16.09035645 268.02801758 -15.07641602 268.67431641 C -11.49971075 270.21472634 -9.88536994 270.02146611 -6.1796875 268.921875 C -3.27709127 267.59720364 -3.27709127 267.59720364 -0.3828125 265.8515625 C 0.72723145 265.21017334 1.83727539 264.56878418 2.98095703 263.90795898 C 4.17748953 263.20440151 5.37393917 262.50070311 6.5703125 261.796875 C 7.82223917 261.06950721 9.07468943 260.34303993 10.32763672 259.61743164 C 12.90507237 258.12312046 15.479579 256.62394669 18.05175781 255.12060547 C 22.60809016 252.45908493 27.18147705 249.82742456 31.75512695 247.19580078 C 34.96778688 245.34643766 38.17755207 243.49213602 41.38671875 241.63671875 C 45.70282095 239.14234374 50.02336743 236.65593555 54.34765625 234.17578125 C 55.44255371 233.54679932 56.53745117 232.91781738 57.66552734 232.26977539 C 59.67649579 231.11474275 61.68838873 229.96131648 63.70166016 228.81030273 C 65.68429969 227.67029334 67.64896218 226.49858493 69.59681702 225.30010986 C 72.92282122 223.33119177 76.34921756 221.78967503 79.88679504 220.23677063 C 91.94856647 214.76241467 91.94856647 214.76241467 100.27762794 204.97370529 C 102.38032648 197.20627612 102.18460492 189.2742017 101.91499758 181.28721595 C 101.82071163 177.82730555 101.8572514 174.3682419 101.87435913 170.90742493 C 101.88319447 165.10370706 101.79311011 159.30816968 101.64013672 153.5065918 C 101.46491732 146.82233272 101.43911702 140.15024272 101.49445879 133.46419209 C 101.5452964 126.99502043 101.49921705 120.53010583 101.40668869 114.06150246 C 101.36867235 111.32528139 101.36222869 108.59177835 101.38185501 105.85538292 C 101.995254 92.12107717 101.995254 92.12107717 97.13677406 79.82676315 C 93.14843132 76.4587246 88.78303995 74.45509503 83.89807701 72.71197701 C 80.80052919 71.53408667 78.13932244 69.8863697 75.31640625 68.15625 C 73.29721492 66.99420081 71.27768013 65.83274825 69.2578125 64.671875 C 60.76341315 59.78100961 52.28264878 54.86800701 43.8203125 49.921875 C 34.19070333 44.29506489 24.54715829 38.69277752 14.87426758 33.140625 C 10.307704 30.51940844 5.74762478 27.89578697 1.24609375 25.1640625 C 0.59785645 24.77589355 -0.05038086 24.38772461 -0.71826172 23.98779297 C -2.33268771 23.01771537 -3.93834023 22.03307434 -5.54296875 21.046875 C -8.79326391 19.6600824 -9.87054478 19.72881613 -13.1796875 20.921875 C -15.85560318 22.19744503 -18.4204006 23.63671811 -20.9921875 25.109375 C -21.77207031 25.54934814 -22.55195313 25.98932129 -23.35546875 26.44262695 C -31.89950674 31.28452661 -40.36980803 36.25560271 -48.84375 41.21875 C -55.23250926 44.95822197 -61.64098169 48.66289123 -68.0546875 52.359375 C -69.12340088 52.97578857 -70.19211426 53.59220215 -71.29321289 54.22729492 C -76.34157043 57.13796078 -81.39199102 60.04495477 -86.4473877 62.94337463 C -88.20449232 63.95109459 -89.96098274 64.9598768 -91.71728516 65.96899414 C -93.90713805 67.2268308 -96.09813191 68.4826842 -98.29052734 69.73608398 C -99.29422363 70.31302002 -100.29791992 70.88995605 -101.33203125 71.484375 C -102.6312854 72.22880859 -102.6312854 72.22880859 -103.95678711 72.98828125 C -105.02034424 73.62636719 -106.08390137 74.26445312 -107.1796875 74.921875 C -108.06146825 75.34719733 -108.943249 75.77251966 -109.85175037 76.21073055 C -115.70831715 79.2371073 -115.70831715 79.2371073 -119.20744991 84.55584908 C -119.59952604 87.80942489 -119.64408927 90.91112891 -119.57128906 94.18774414 C -119.58735199 95.40807846 -119.60341492 96.62841278 -119.6199646 97.88572693 C -119.6515591 101.2189078 -119.63403534 104.54453253 -119.59140491 107.87710881 C -119.55597313 111.37103659 -119.57609201 114.86472184 -119.58782959 118.35874939 C -119.59867454 124.22424848 -119.56464918 130.0882024 -119.50390625 135.95336914 C -119.43432663 142.72586246 -119.43616779 149.49549658 -119.4761622 156.26816469 C -119.5130263 162.79588642 -119.4989436 169.32255921 -119.46190643 175.85024834 C -119.44708188 178.62271766 -119.45003471 181.39431658 -119.46747589 184.16676521 C -119.48913991 188.0407478 -119.43632095 191.91178671 -119.37597656 195.78540039 C -119.39859055 197.50383652 -119.39859055 197.50383652 -119.42166138 199.25698853 C -119.34075162 205.17950609 -119.34075162 205.17950609 -116.19695568 209.94060707 C -113.91550339 211.48167503 -111.65967937 212.73348571 -109.1796875 213.921875 C -107.76683472 214.7886084 -107.76683472 214.7886084 -106.32543945 215.67285156 C -103.71753161 217.17819701 -101.10755611 218.6795213 -98.4921875 220.171875 C -97.58146484 220.70039063 -96.67074219 221.22890625 -95.73242188 221.7734375 C -88.2677411 226.04516477 -81.91705786 228.95550107 -73.1796875 227.921875 C -68.9019598 226.15498747 -67.25373231 223.98742786 -65.1796875 219.921875 C -64.733408 217.28437911 -64.733408 217.28437911 -64.79441833 214.47468567 C -64.78477051 213.39369095 -64.77512268 212.31269623 -64.7651825 211.19894409 C -64.76975967 210.02316803 -64.77433685 208.84739197 -64.77905273 207.63598633 C -64.77207367 206.39001175 -64.7650946 205.14403717 -64.75790405 203.86030579 C -64.74477584 201.15641375 -64.73701414 198.45313951 -64.73843193 195.74927711 C -64.74046764 191.47618783 -64.72088742 187.20336345 -64.69825745 182.93034363 C -64.65731857 174.63631821 -64.63867898 166.34231384 -64.62208557 158.04821014 C -64.59971354 147.47972575 -64.5662759 136.91130246 -64.51488644 126.34291857 C -64.49493245 122.09258375 -64.48538276 117.84238809 -64.48393428 113.59200823 C -64.4805471 110.33450418 -64.46465043 107.07705453 -64.45092773 103.81958008 C -64.45348068 102.63773132 -64.45603363 101.45588257 -64.45866394 100.23822021 C -64.45183594 99.16568497 -64.44500793 98.09314972 -64.43797302 96.9881134 C -64.43633872 96.05253507 -64.43470442 95.11695673 -64.43302059 94.15302753 C -64.1796875 91.921875 -64.1796875 91.921875 -62.1796875 89.921875 C -59.30626689 89.72330528 -56.55106762 89.64358554 -53.6796875 89.671875 C -52.50212891 89.66027344 -52.50212891 89.66027344 -51.30078125 89.6484375 C -45.43299537 89.66856713 -45.43299537 89.66856713 -43.1796875 91.921875 C -42.92241859 94.17753315 -42.92241859 94.17753315 -42.91226196 97.048172 C -42.90373199 98.13438843 -42.89520203 99.22060486 -42.88641357 100.33973694 C -42.88731995 101.53706955 -42.88822632 102.73440216 -42.88916016 103.96801758 C -42.88244293 105.22514557 -42.87572571 106.48227356 -42.86880493 107.77749634 C -42.8510946 111.23477143 -42.84644697 114.69194756 -42.84517336 118.14926362 C -42.84375206 120.31327674 -42.83948248 122.47726471 -42.83417892 124.64127159 C -42.81564987 132.2034909 -42.80751038 139.76563961 -42.80908203 147.32788086 C -42.81027865 154.35327767 -42.78927874 161.37836486 -42.7575947 168.40368348 C -42.73131642 174.4480529 -42.7207198 180.4923221 -42.72199285 186.53674811 C -42.72249986 190.14055882 -42.71696536 193.74409554 -42.69563675 197.34784889 C -42.67241204 201.38290569 -42.68184514 205.4172866 -42.69384766 209.45239258 C -42.68260864 210.62745865 -42.67136963 211.80252472 -42.65979004 213.01319885 C -42.74047826 223.75916556 -44.51254077 234.45394571 -52.33203125 242.33984375 C -60.71686163 249.51924397 -70.48050133 250.61113443 -81.1796875 249.921875 C -94.2764775 248.86838549 -107.20355369 239.42889042 -118.3671875 233.171875 C -119.35928223 232.61717529 -120.35137695 232.06247559 -121.37353516 231.4909668 C -129.6141338 226.81705742 -135.61601316 223.0231821 -139.1796875 213.921875 C -139.8838634 209.39426553 -139.86383951 204.93430034 -139.82666016 200.35913086 C -139.83344812 199.0111829 -139.84235783 197.66324423 -139.85321045 196.31532288 C -139.87586912 192.67883656 -139.86722466 189.04306502 -139.85131502 185.40656734 C -139.83858827 181.58796671 -139.85041459 177.76942415 -139.85824585 173.95082092 C -139.86732173 167.5412404 -139.85540785 161.1319487 -139.83154297 154.72241211 C -139.80432373 147.32687152 -139.81315944 139.93202006 -139.840675 132.5364961 C -139.86341031 126.16930359 -139.86654502 119.80231777 -139.85348165 113.43509775 C -139.84571277 109.63983883 -139.84457448 105.84490321 -139.86116409 102.04966545 C -139.87567499 98.48128264 -139.86546876 94.91378322 -139.83669281 91.34549522 C -139.82699667 89.4219825 -139.84172489 87.49839451 -139.85733032 85.57492065 C -139.75712871 77.33695266 -138.31831559 72.27439193 -132.62558937 66.28745937 C -127.84218214 61.67883044 -121.81950478 58.63745439 -116.05926514 55.43283081 C -113.55845824 54.04147294 -111.0673955 52.63305255 -108.57550049 51.22581482 C -107.29698209 50.50404329 -106.0179682 49.78314877 -104.73846436 49.06312561 C -98.80760334 45.72357691 -92.92623559 42.30206479 -87.0546875 38.859375 C -76.66962291 32.78264935 -66.25469297 26.75910132 -55.828125 20.75390625 C -51.8103093 18.43980239 -47.79493324 16.12159317 -43.78305054 13.79722595 C -41.4048276 12.41937997 -39.0258803 11.04278715 -36.64691162 9.66622925 C -34.97371958 8.69737167 -33.301543 7.72676109 -31.62939453 6.75610352 C -30.09968018 5.87136353 -30.09968018 5.87136353 -28.5390625 4.96875 C -27.64670898 4.45151367 -26.75435547 3.93427734 -25.83496094 3.40136719 C -17.20562417 -1.4068142 -9.72304072 -3.29675582 0 0 Z" stroke-linecap="round" />
</g>
		<g transform="matrix(1 0 0 1 31.18 1.63)"  >
<path style="stroke: none; stroke-width: 1; stroke-dasharray: none; stroke-linecap: butt; stroke-dashoffset: 0; stroke-linejoin: miter; stroke-miterlimit: 4; fill: rgb(35,180,93); fill-rule: nonzero; opacity: 1;" vector-effect="non-scaling-stroke"  transform=" translate(36.46, -51.18)" d="M 0 0 C 9.07221453 7.09999398 13.30157254 15.40613373 14.75 26.8125 C 14.9921875 29.25390625 14.9921875 29.25390625 14.875 31.25 C 12.875 33.25 12.875 33.25 9.03125 33.48046875 C 7.47910572 33.47647524 5.9269606 33.46170957 4.375 33.4375 C 3.58996094 33.43685547 2.80492187 33.43621094 1.99609375 33.43554688 C -3.84406304 33.39046848 -3.84406304 33.39046848 -6.125 32.25 C -7.125 29.88671875 -7.125 29.88671875 -8.125 26.9375 C -9.85878962 20.61301914 -9.85878962 20.61301914 -14.125 16.1875 C -15.115 15.878125 -16.105 15.56875 -17.125 15.25 C -17.81086182 15.00830078 -18.49672363 14.76660156 -19.20336914 14.51757812 C -25.74566299 12.3348122 -31.68910033 11.74221166 -38.5625 11.8125 C -39.57151367 11.81789795 -40.58052734 11.8232959 -41.62011719 11.82885742 C -49.31241843 11.98636408 -56.6206078 12.64442001 -62.828125 17.61328125 C -64.43153838 19.63686621 -64.77698504 21.07579039 -65.125 23.625 C -65.24875 24.37523437 -65.3725 25.12546875 -65.5 25.8984375 C -64.90425842 29.63423366 -63.04548834 30.95423555 -60.125 33.25 C -57.48655165 34.17790375 -55.21504324 34.80371743 -52.5 35.3125 C -51.73582764 35.47041016 -50.97165527 35.62832031 -50.18432617 35.79101562 C -42.97891818 37.21925437 -35.70768563 38.21613861 -28.4375 39.25 C 4.68065109 43.96480042 4.68065109 43.96480042 14.43359375 56.09375 C 19.62960561 63.86664578 20.08700306 73.00554943 18.3359375 82.02734375 C 15.65929542 91.80738211 10.08318593 98.31284277 1.58984375 103.69921875 C -17.52061321 114.04683203 -43.93738233 113.23902452 -64.35546875 107.46875 C -75.6066743 103.83105453 -84.08210813 97.66719132 -89.5625 87 C -91.79052476 81.40518228 -92.38279361 75.23940492 -92.125 69.25 C -90.125 67.25 -90.125 67.25 -88.24560547 67.02294922 C -87.13016357 67.03865967 -87.13016357 67.03865967 -85.9921875 67.0546875 C -85.18652344 67.06113281 -84.38085938 67.06757813 -83.55078125 67.07421875 C -82.28814453 67.09935547 -82.28814453 67.09935547 -81 67.125 C -80.15050781 67.13402344 -79.30101562 67.14304687 -78.42578125 67.15234375 C -76.32540116 67.17594353 -74.22516556 67.21181517 -72.125 67.25 C -71.94646484 67.85884033 -71.76792969 68.46768066 -71.58398438 69.0949707 C -69.53159138 75.93653905 -67.12839763 82.91464051 -60.625 86.625 C -47.28193138 92.25099535 -28.98132967 91.82233499 -15.125 88.25 C -11.65562486 86.76963676 -11.65562486 86.76963676 -9.125 85.25 C -8.465 85.25 -7.805 85.25 -7.125 85.25 C -5.74444263 82.30481095 -4.85699427 79.44436637 -4.3125 76.25 C -4.20292969 75.610625 -4.09335937 74.97125 -3.98046875 74.3125 C -4.18944222 71.33039205 -5.413982 69.6743558 -7.125 67.25 C -16.49968217 61.3061751 -30.32820658 61.32833324 -41.08056641 59.97094727 C -74.48670604 55.69736358 -74.48670604 55.69736358 -84.5 43.3125 C -88.92144433 34.97977799 -89.58410346 25.61937979 -87.47265625 16.40234375 C -84.19170293 7.29171371 -78.16916545 1.1878855 -69.8125 -3.5 C -65.40071289 -5.55199401 -60.87959803 -6.77235336 -56.125 -7.75 C -54.81595703 -8.02650391 -54.81595703 -8.02650391 -53.48046875 -8.30859375 C -35.07440107 -10.72988088 -16.3212703 -9.13991137 0 0 Z" stroke-linecap="round" />
</g>
</g>
</g>
</svg>